<svg xmlns="http://www.w3.org/2000/svg" id="Calque_1" data-name="Calque 1" viewBox="0 0 64 64"><defs><style>.cls-2{fill:#fff}</style></defs><path d="M31.4.02C47.73-.63 62.87 12.4 63.88 27.37c1.38 20.42-16.63 35.67-29.44 36.56C16.39 65.18 1.62 48.94.68 36.3-1.07 13 11.83 1.62 31.4.02" style="fill:#00ba76"/><path d="M43.26 25.55a19.3 19.3 0 0 0-2.2-4.34c-1.52-2.22-4.26-5.46-7.25-5.32-1.2.05-2.27.71-3.29 1.34-5.56 3.47-11.26 6.78-16.69 10.45-3.1 2.1-3.76 6.82-2.33 10.05 1.12 2.53 4.06 5.54 7.05 5.16-.21-.12-.31.27-.24.5.8 2.41 1.61 4.82 2.77 7.08.68 1.33 1.53 2.64 2.81 3.39 1.85 1.07 4.34.67 5.96-.72s2.39-3.61 2.28-5.75c-.12-2.3-1.64-3.84-2.11-5.86 1.31-.66 3.23-.68 4.68-.93 1.35-.23 2.74-.58 4.11-.65.84-.05 1.69-.07 2.48-.36 2.86-1.04 3.27-4.71 3.2-7.33-.07-2.28-.48-4.56-1.25-6.72Zm-12.9 24.68c-.41.88-1.14 1.55-2.05 1.88l-1.05.38c-.91.33-1.9.29-2.77-.12a3.6 3.6 0 0 1-1.88-2.05l-2.74-7.52c1.48-.19 5.06-.69 8.85-1.24l-.34.12 2.1 5.77c.33.91.29 1.9-.12 2.78m1.76-11.03c-2.82.58-5.63 1.08-8.49 1.53-1.96.31-3.98.48-5.9.02-3.87-.92-6.6-6.01-4.75-9.66 1.3-2.58 4.83-3.94 7.18-5.4 2.95-1.84 5.99-4.3 9.17-5.66-.8 2.02-.41 4.05-.14 6.16.62 4.88 3.09 9.7 7.23 12.5-1.4-.03-2.85.21-4.29.51Zm10.54-5.17c-.4 3.69-3.26 5.19-6.21 2.61-4.39-3.82-6.89-10.32-5.34-16.06.22-.83.56-1.66 1.16-2.26 2.91-2.92 6.54 2.43 7.85 4.62 1.96 3.28 2.92 7.18 2.55 11v.09Z" class="cls-2"/><path d="M50.95 13.98a.57.57 0 0 0-.43-.15c-.5.05-1.03.74-1.5 1.39-.05.07-.09.12-.12.16-.48.61-1.02 1.31-1.53 2-.84 1.14-1.92 2.66-2.77 4.34-.15.29-.1.72.11.97.08.09.17.16.28.2q.18.06.39 0c.24-.07.4-.23.54-.4 1.77-2.03 3.38-4.31 4.65-6.58l.02-.04c.13-.23.39-.7.5-1.12.09-.35.04-.61-.14-.78Zm1.34 10c.25-.12.52-.24.78-.36.83-.37 1.69-.76 2.43-1.36a.9.9 0 0 0 .23-.27c.08-.17.06-.36-.06-.51-.23-.3-.82-.41-1.11-.35-.33.06-.62.21-.9.34q-.195.105-.39.18l-.22.09c-.79.32-1.6.66-2.32 1.06-.4.22-.82.42-1.24.61-.41.19-.83.38-1.23.6l-.09.05c-.38.21-.81.44-1.12.78-.25.28-.33.62-.21.89.04.09.15.25.38.33.11.04.25.06.42.05.3-.02.56-.15.77-.25.43-.21.87-.42 1.3-.63.84-.41 1.72-.84 2.58-1.25m2.66 4.63a.8.8 0 0 0-.29-.28c-.25-.15-.61-.2-.86-.2h-.32c-1.03 0-2.09.01-3.14-.01-.79-.02-1.89 0-2.31.49a.72.72 0 0 0-.17.6c.03.2.19.38.4.46h.02c.15.05.3.05.42.06.7.01 1.41.07 2.1.13.65.05 1.31.11 1.97.12.59.01 1.1-.09 1.52-.3.26-.14.7-.42.71-.81 0-.07-.01-.16-.06-.26Z" style="fill:#ffb700"/><path d="M30.53 23.43s2.59-6.15 5.73-1.87c3.14 4.29 4.53 16.02.36 15.03s-5.98-8.14-5.98-8.14l-.87-3.34.76-1.69Z" class="cls-2"/></svg>